{
    "asset" : {
        "generator" : "Khronos glTF Blender I/O v1.8.19",
        "version" : "2.0"
    },
    "scene" : 0,
    "scenes" : [
        {
            "name" : "Scene",
            "nodes" : [
                0
            ]
        }
    ],
    "nodes" : [
        {
            "mesh" : 0,
            "name" : "Cube",
            "scale" : [
                0.9856712818145752,
                1,
                1
            ],
            "translation" : [
                0,
                0.10000000149011612,
                0
            ]
        }
    ],
    "materials" : [
        {
            "doubleSided" : true,
            "name" : "base-mat",
            "pbrMetallicRoughness" : {
                "baseColorFactor" : [
                    0.800000011920929,
                    0.800000011920929,
                    0.800000011920929,
                    1
                ],
                "metallicFactor" : 0.5,
                "roughnessFactor" : 0.5
            }
        },
        {
            "doubleSided" : true,
            "name" : "frames",
            "pbrMetallicRoughness" : {
                "baseColorFactor" : [
                    0.0236488189548254,
                    0.0236488189548254,
                    0.0236488189548254,
                    1
                ],
                "metallicFactor" : 0.20000000298023224,
                "roughnessFactor" : 0.5
            }
        },
        {
            "doubleSided" : true,
            "name" : "metalBars",
            "pbrMetallicRoughness" : {
                "baseColorFactor" : [
                    0.2330109030008316,
                    0.2330109030008316,
                    0.2330109030008316,
                    1
                ],
                "metallicFactor" : 0.5,
                "roughnessFactor" : 0.5
            }
        },
        {
            "doubleSided" : true,
            "name" : "buttonsFrame",
            "pbrMetallicRoughness" : {
                "baseColorFactor" : [
                    0.800000011920929,
                    0.800000011920929,
                    0.800000011920929,
                    1
                ],
                "metallicFactor" : 0.5,
                "roughnessFactor" : 0.5
            }
        },
        {
            "doubleSided" : true,
            "name" : "leverBase",
            "pbrMetallicRoughness" : {
                "baseColorFactor" : [
                    0.800000011920929,
                    0.800000011920929,
                    0.800000011920929,
                    1
                ],
                "metallicFactor" : 0.5,
                "roughnessFactor" : 0.5
            }
        },
        {
            "doubleSided" : true,
            "name" : "octopus",
            "pbrMetallicRoughness" : {
                "baseColorFactor" : [
                    0.800000011920929,
                    0.800000011920929,
                    0.800000011920929,
                    1
                ],
                "metallicFactor" : 0.5,
                "roughnessFactor" : 0.5
            }
        },
        {
            "doubleSided" : true,
            "name" : "wood",
            "pbrMetallicRoughness" : {
                "baseColorFactor" : [
                    0.800000011920929,
                    0.800000011920929,
                    0.800000011920929,
                    1
                ],
                "metallicFactor" : 0.5,
                "roughnessFactor" : 0.5
            }
        },
        {
            "doubleSided" : true,
            "name" : "leverFrame",
            "pbrMetallicRoughness" : {
                "baseColorFactor" : [
                    0.800000011920929,
                    0.800000011920929,
                    0.800000011920929,
                    1
                ],
                "metallicFactor" : 0.5,
                "roughnessFactor" : 0.5
            }
        },
        {
            "doubleSided" : true,
            "name" : "wall",
            "pbrMetallicRoughness" : {
                "baseColorFactor" : [
                    0.800000011920929,
                    0.800000011920929,
                    0.800000011920929,
                    1
                ],
                "metallicFactor" : 0.5,
                "roughnessFactor" : 0.5
            }
        }
    ],
    "meshes" : [
        {
            "name" : "Cube.003",
            "primitives" : [
                {
                    "attributes" : {
                        "POSITION" : 0,
                        "NORMAL" : 1,
                        "TEXCOORD_0" : 2
                    },
                    "indices" : 3,
                    "material" : 0
                },
                {
                    "attributes" : {
                        "POSITION" : 4,
                        "NORMAL" : 5,
                        "TEXCOORD_0" : 6
                    },
                    "indices" : 7,
                    "material" : 1
                },
                {
                    "attributes" : {
                        "POSITION" : 8,
                        "NORMAL" : 9,
                        "TEXCOORD_0" : 10
                    },
                    "indices" : 11,
                    "material" : 2
                },
                {
                    "attributes" : {
                        "POSITION" : 12,
                        "NORMAL" : 13,
                        "TEXCOORD_0" : 14
                    },
                    "indices" : 15,
                    "material" : 3
                },
                {
                    "attributes" : {
                        "POSITION" : 16,
                        "NORMAL" : 17,
                        "TEXCOORD_0" : 18
                    },
                    "indices" : 19,
                    "material" : 4
                },
                {
                    "attributes" : {
                        "POSITION" : 20,
                        "NORMAL" : 21,
                        "TEXCOORD_0" : 22
                    },
                    "indices" : 23,
                    "material" : 5
                },
                {
                    "attributes" : {
                        "POSITION" : 24,
                        "NORMAL" : 25,
                        "TEXCOORD_0" : 26
                    },
                    "indices" : 27,
                    "material" : 6
                },
                {
                    "attributes" : {
                        "POSITION" : 28,
                        "NORMAL" : 29,
                        "TEXCOORD_0" : 30
                    },
                    "indices" : 31,
                    "material" : 7
                },
                {
                    "attributes" : {
                        "POSITION" : 32,
                        "NORMAL" : 33,
                        "TEXCOORD_0" : 34
                    },
                    "indices" : 35,
                    "material" : 8
                }
            ]
        }
    ],
    "accessors" : [
        {
            "bufferView" : 0,
            "componentType" : 5126,
            "count" : 8770,
            "max" : [
                16.74489974975586,
                3.4713869094848633,
                5.061679840087891
            ],
            "min" : [
                -21.28244972229004,
                -0.110794298350811,
                -24.770219802856445
            ],
            "type" : "VEC3"
        },
        {
            "bufferView" : 1,
            "componentType" : 5126,
            "count" : 8770,
            "type" : "VEC3"
        },
        {
            "bufferView" : 2,
            "componentType" : 5126,
            "count" : 8770,
            "type" : "VEC2"
        },
        {
            "bufferView" : 3,
            "componentType" : 5123,
            "count" : 24663,
            "type" : "SCALAR"
        },
        {
            "bufferView" : 4,
            "componentType" : 5126,
            "count" : 2077,
            "max" : [
                11.14721965789795,
                3.281960964202881,
                0.9815155863761902
            ],
            "min" : [
                -17.0285587310791,
                -0.110794298350811,
                -18.015668869018555
            ],
            "type" : "VEC3"
        },
        {
            "bufferView" : 5,
            "componentType" : 5126,
            "count" : 2077,
            "type" : "VEC3"
        },
        {
            "bufferView" : 6,
            "componentType" : 5126,
            "count" : 2077,
            "type" : "VEC2"
        },
        {
            "bufferView" : 7,
            "componentType" : 5123,
            "count" : 3870,
            "type" : "SCALAR"
        },
        {
            "bufferView" : 8,
            "componentType" : 5126,
            "count" : 15363,
            "max" : [
                3.7494568824768066,
                2.6858720779418945,
                1.4140429496765137
            ],
            "min" : [
                -3.7187390327453613,
                1.4755209684371948,
                -3.703458070755005
            ],
            "type" : "VEC3"
        },
        {
            "bufferView" : 9,
            "componentType" : 5126,
            "count" : 15363,
            "type" : "VEC3"
        },
        {
            "bufferView" : 10,
            "componentType" : 5126,
            "count" : 15363,
            "type" : "VEC2"
        },
        {
            "bufferView" : 11,
            "componentType" : 5123,
            "count" : 21180,
            "type" : "SCALAR"
        },
        {
            "bufferView" : 12,
            "componentType" : 5126,
            "count" : 204,
            "max" : [
                3.818777084350586,
                2.7776548862457275,
                1.5103520154953003
            ],
            "min" : [
                -3.7880589962005615,
                1.4584369659423828,
                -3.7681097984313965
            ],
            "type" : "VEC3"
        },
        {
            "bufferView" : 13,
            "componentType" : 5126,
            "count" : 204,
            "type" : "VEC3"
        },
        {
            "bufferView" : 14,
            "componentType" : 5126,
            "count" : 204,
            "type" : "VEC2"
        },
        {
            "bufferView" : 15,
            "componentType" : 5123,
            "count" : 420,
            "type" : "SCALAR"
        },
        {
            "bufferView" : 16,
            "componentType" : 5126,
            "count" : 4907,
            "max" : [
                -0.481314092874527,
                2.4806129932403564,
                -3.633131980895996
            ],
            "min" : [
                -1.5102089643478394,
                2.2905290126800537,
                -3.7271320819854736
            ],
            "type" : "VEC3"
        },
        {
            "bufferView" : 17,
            "componentType" : 5126,
            "count" : 4907,
            "type" : "VEC3"
        },
        {
            "bufferView" : 18,
            "componentType" : 5126,
            "count" : 4907,
            "type" : "VEC2"
        },
        {
            "bufferView" : 19,
            "componentType" : 5123,
            "count" : 24888,
            "type" : "SCALAR"
        },
        {
            "bufferView" : 20,
            "componentType" : 5126,
            "count" : 210,
            "max" : [
                -2.516549825668335,
                2.918449878692627,
                -3.7067790031433105
            ],
            "min" : [
                -3.083906888961792,
                2.3610870838165283,
                -3.7088608741760254
            ],
            "type" : "VEC3"
        },
        {
            "bufferView" : 21,
            "componentType" : 5126,
            "count" : 210,
            "type" : "VEC3"
        },
        {
            "bufferView" : 22,
            "componentType" : 5126,
            "count" : 210,
            "type" : "VEC2"
        },
        {
            "bufferView" : 23,
            "componentType" : 5123,
            "count" : 210,
            "type" : "SCALAR"
        },
        {
            "bufferView" : 24,
            "componentType" : 5126,
            "count" : 7193,
            "max" : [
                -2.4056999683380127,
                3.0235419273376465,
                -3.63828706741333
            ],
            "min" : [
                -3.1883881092071533,
                2.2520689964294434,
                -3.779587984085083
            ],
            "type" : "VEC3"
        },
        {
            "bufferView" : 25,
            "componentType" : 5126,
            "count" : 7193,
            "type" : "VEC3"
        },
        {
            "bufferView" : 26,
            "componentType" : 5126,
            "count" : 7193,
            "type" : "VEC2"
        },
        {
            "bufferView" : 27,
            "componentType" : 5123,
            "count" : 9714,
            "type" : "SCALAR"
        },
        {
            "bufferView" : 28,
            "componentType" : 5126,
            "count" : 40,
            "max" : [
                -0.47577598690986633,
                2.7199950218200684,
                -3.7021279335021973
            ],
            "min" : [
                -1.519765019416809,
                2.1998538970947266,
                -3.739574909210205
            ],
            "type" : "VEC3"
        },
        {
            "bufferView" : 29,
            "componentType" : 5126,
            "count" : 40,
            "type" : "VEC3"
        },
        {
            "bufferView" : 30,
            "componentType" : 5126,
            "count" : 40,
            "type" : "VEC2"
        },
        {
            "bufferView" : 31,
            "componentType" : 5123,
            "count" : 60,
            "type" : "SCALAR"
        },
        {
            "bufferView" : 32,
            "componentType" : 5126,
            "count" : 497,
            "max" : [
                3.792689800262451,
                3.4713869094848633,
                3.7160940170288086
            ],
            "min" : [
                -3.770150899887085,
                0.10000000149011612,
                -3.7489540576934814
            ],
            "type" : "VEC3"
        },
        {
            "bufferView" : 33,
            "componentType" : 5126,
            "count" : 497,
            "type" : "VEC3"
        },
        {
            "bufferView" : 34,
            "componentType" : 5126,
            "count" : 497,
            "type" : "VEC2"
        },
        {
            "bufferView" : 35,
            "componentType" : 5123,
            "count" : 1476,
            "type" : "SCALAR"
        }
    ],
    "bufferViews" : [
        {
            "buffer" : 0,
            "byteLength" : 105240,
            "byteOffset" : 0
        },
        {
            "buffer" : 0,
            "byteLength" : 105240,
            "byteOffset" : 105240
        },
        {
            "buffer" : 0,
            "byteLength" : 70160,
            "byteOffset" : 210480
        },
        {
            "buffer" : 0,
            "byteLength" : 49326,
            "byteOffset" : 280640
        },
        {
            "buffer" : 0,
            "byteLength" : 24924,
            "byteOffset" : 329968
        },
        {
            "buffer" : 0,
            "byteLength" : 24924,
            "byteOffset" : 354892
        },
        {
            "buffer" : 0,
            "byteLength" : 16616,
            "byteOffset" : 379816
        },
        {
            "buffer" : 0,
            "byteLength" : 7740,
            "byteOffset" : 396432
        },
        {
            "buffer" : 0,
            "byteLength" : 184356,
            "byteOffset" : 404172
        },
        {
            "buffer" : 0,
            "byteLength" : 184356,
            "byteOffset" : 588528
        },
        {
            "buffer" : 0,
            "byteLength" : 122904,
            "byteOffset" : 772884
        },
        {
            "buffer" : 0,
            "byteLength" : 42360,
            "byteOffset" : 895788
        },
        {
            "buffer" : 0,
            "byteLength" : 2448,
            "byteOffset" : 938148
        },
        {
            "buffer" : 0,
            "byteLength" : 2448,
            "byteOffset" : 940596
        },
        {
            "buffer" : 0,
            "byteLength" : 1632,
            "byteOffset" : 943044
        },
        {
            "buffer" : 0,
            "byteLength" : 840,
            "byteOffset" : 944676
        },
        {
            "buffer" : 0,
            "byteLength" : 58884,
            "byteOffset" : 945516
        },
        {
            "buffer" : 0,
            "byteLength" : 58884,
            "byteOffset" : 1004400
        },
        {
            "buffer" : 0,
            "byteLength" : 39256,
            "byteOffset" : 1063284
        },
        {
            "buffer" : 0,
            "byteLength" : 49776,
            "byteOffset" : 1102540
        },
        {
            "buffer" : 0,
            "byteLength" : 2520,
            "byteOffset" : 1152316
        },
        {
            "buffer" : 0,
            "byteLength" : 2520,
            "byteOffset" : 1154836
        },
        {
            "buffer" : 0,
            "byteLength" : 1680,
            "byteOffset" : 1157356
        },
        {
            "buffer" : 0,
            "byteLength" : 420,
            "byteOffset" : 1159036
        },
        {
            "buffer" : 0,
            "byteLength" : 86316,
            "byteOffset" : 1159456
        },
        {
            "buffer" : 0,
            "byteLength" : 86316,
            "byteOffset" : 1245772
        },
        {
            "buffer" : 0,
            "byteLength" : 57544,
            "byteOffset" : 1332088
        },
        {
            "buffer" : 0,
            "byteLength" : 19428,
            "byteOffset" : 1389632
        },
        {
            "buffer" : 0,
            "byteLength" : 480,
            "byteOffset" : 1409060
        },
        {
            "buffer" : 0,
            "byteLength" : 480,
            "byteOffset" : 1409540
        },
        {
            "buffer" : 0,
            "byteLength" : 320,
            "byteOffset" : 1410020
        },
        {
            "buffer" : 0,
            "byteLength" : 120,
            "byteOffset" : 1410340
        },
        {
            "buffer" : 0,
            "byteLength" : 5964,
            "byteOffset" : 1410460
        },
        {
            "buffer" : 0,
            "byteLength" : 5964,
            "byteOffset" : 1416424
        },
        {
            "buffer" : 0,
            "byteLength" : 3976,
            "byteOffset" : 1422388
        },
        {
            "buffer" : 0,
            "byteLength" : 2952,
            "byteOffset" : 1426364
        }
    ],
    "buffers" : [
        {
            "byteLength" : 1429316,
            "uri" : "data:application/octet-stream;base64,"
        }
    ]
}
